<svg width="134" height="30" viewBox="0 0 134 30" fill="none" xmlns="http://www.w3.org/2000/svg">
<path d="M40.486 0H6.96719C6.37131 0 5.8499 0.282573 5.55196 0.777076L0.263436 9.46622C-0.0345081 9.96071 -0.0345081 10.5258 0.263436 11.0203L11.2874 29.1757C11.5854 29.6702 12.1067 29.9528 12.7026 29.9528H34.676C35.272 29.9528 35.7934 29.6702 36.0913 29.1757L47.1898 11.0203C47.4877 10.5258 47.4877 9.96071 47.1898 9.46622L41.9012 0.777076C41.6033 0.282573 41.0819 0 40.486 0ZM38.9218 1.97802L35.123 8.26528L31.2497 1.97802H38.9218ZM27.5254 1.97802L23.6521 8.26528L19.7788 1.97802H27.5254ZM7.26514 1.97802H16.2035L11.7343 9.32488H2.79597L7.26514 1.97802ZM13.0006 27.9747L2.79597 11.3029H11.7343L21.8644 27.9747H13.0006ZM13.5964 10.2433L18.0657 2.89638L28.1958 19.5682L23.7266 26.9151L13.5964 10.2433ZM25.5143 27.9747L29.3875 21.5462L33.2608 27.9747H25.5143ZM39.5922 19.6388L35.123 26.9858L24.9184 10.2433L29.3875 2.89638L39.5922 19.6388ZM40.7839 17.5902L36.3148 10.2433L40.7839 2.89638L45.2532 10.2433L40.7839 17.5902Z" fill="black"/>
<path d="M59.7779 12.2213L61.3421 6.85245H61.4166L62.9808 12.2213H65.5878L68.0459 3.74414H65.5134L64.1726 9.3956H64.0981L62.6084 3.74414H60.1504L58.7351 9.46623H58.6606L57.2454 3.74414H54.7873L57.1709 12.2213H59.7779Z" fill="black"/>
<path d="M76.5374 11.1616C76.9097 10.7378 77.1332 10.3139 77.2077 9.81937L74.8986 9.67811C74.8242 9.89007 74.6751 10.102 74.5262 10.2432C74.3772 10.3846 74.1537 10.5258 73.9303 10.5965C73.7813 10.5965 73.4834 10.5965 73.2599 10.5965C72.813 10.5965 72.515 10.5258 72.2171 10.3139C71.9192 10.1726 71.6957 9.89007 71.5467 9.60748C71.3978 9.32488 71.3233 8.97165 71.3233 8.54779H77.4312V7.91204C77.4312 7.20559 77.3566 6.5698 77.1332 6.00466C76.9097 5.51015 76.6118 5.01565 76.2394 4.66243C75.8669 4.30922 75.42 4.02664 74.8986 3.88536C74.3772 3.74407 73.8559 3.60278 73.2599 3.60278C72.3661 3.60278 71.6212 3.74407 70.9509 4.16793C70.2804 4.52115 69.8335 5.01565 69.4611 5.72208C69.0887 6.35787 68.9397 7.13495 68.9397 8.0533C68.9397 8.97165 69.0887 9.74874 69.4611 10.3846C69.8335 11.0203 70.3549 11.5148 70.9509 11.868C71.6212 12.2213 72.4406 12.4332 73.3344 12.4332C74.0793 12.4332 74.7497 12.3625 75.2711 12.1506C75.718 11.868 76.1649 11.5855 76.5374 11.1616ZM72.1427 5.65144C72.4406 5.51015 72.7385 5.36886 73.111 5.36886C73.4834 5.36886 73.7813 5.43951 74.0793 5.5808C74.3772 5.72208 74.6007 5.93401 74.7497 6.21659C74.8986 6.49916 74.9731 6.78173 74.9731 7.13495H71.2488C71.2488 6.85237 71.3233 6.5698 71.4722 6.28722C71.6212 6.00466 71.8447 5.79273 72.1427 5.65144Z" fill="black"/>
<path d="M87.2635 12.1506V0.847656H84.8052V5.08625H84.7313C84.6566 4.87433 84.4332 4.6624 84.2838 4.37982C84.0605 4.09725 83.8371 3.95596 83.4644 3.81468C83.0924 3.67339 82.7199 3.5321 82.1985 3.5321C81.5281 3.5321 80.9322 3.67339 80.4108 4.02661C79.8895 4.37982 79.4425 4.87433 79.0701 5.51011C78.6977 6.14591 78.5487 6.99362 78.5487 7.91202C78.5487 8.901 78.6976 9.67808 78.9956 10.3138C79.2935 10.9497 79.7404 11.4441 80.3364 11.7974C80.8578 12.1506 81.5281 12.2919 82.1985 12.2919C82.6454 12.2919 83.0924 12.2212 83.3905 12.0093C83.6885 11.868 83.9858 11.6561 84.2099 11.4441C84.4332 11.2323 84.5819 11.0203 84.7313 10.7377H84.8052V12.08H87.2635V12.1506ZM84.6566 9.25422C84.508 9.60745 84.2838 9.88997 83.9858 10.1019C83.6885 10.3138 83.3905 10.4552 82.9434 10.4552C82.4965 10.4552 82.1985 10.3845 81.975 10.1726C81.6771 9.96068 81.5281 9.67808 81.3791 9.25422C81.2302 8.83036 81.1557 8.40651 81.1557 7.91202C81.1557 7.41748 81.2302 6.99362 81.3791 6.6404C81.5281 6.28719 81.7516 6.00462 81.975 5.79269C82.273 5.58076 82.5709 5.43948 83.0179 5.43948C83.3905 5.43948 83.7624 5.51011 84.0605 5.72204C84.3585 5.93398 84.5819 6.21655 84.7313 6.56977C84.8799 6.92298 84.9546 7.41748 84.9546 7.91202C84.8799 8.47714 84.8052 8.90099 84.6566 9.25422Z" fill="black"/>
<path d="M90.988 11.868C91.658 12.2213 92.4036 12.4332 93.3716 12.4332C94.2658 12.4332 95.0105 12.2213 95.7552 11.868C96.4252 11.5148 96.8727 11.0203 97.2447 10.3139C97.6174 9.67811 97.766 8.90102 97.766 8.0533C97.766 7.13495 97.6174 6.42852 97.2447 5.72208C96.8727 5.0863 96.3513 4.59179 95.7552 4.16793C95.0844 3.81471 94.3397 3.60278 93.3716 3.60278C92.4774 3.60278 91.658 3.74407 90.988 4.16793C90.318 4.52115 89.8705 5.01565 89.4986 5.72208C89.1258 6.35787 88.9772 7.13495 88.9772 8.0533C88.9772 8.90102 89.1258 9.67811 89.4986 10.3139C89.8705 10.9497 90.3919 11.4442 90.988 11.868ZM91.7327 6.71109C91.8822 6.28722 92.1055 6.00466 92.3288 5.79273C92.6269 5.58079 92.9249 5.43951 93.3716 5.43951C93.7436 5.43951 94.1163 5.58079 94.4144 5.79273C94.7124 6.00466 94.9358 6.35787 95.0105 6.71109C95.1591 7.0643 95.2338 7.55881 95.2338 8.0533C95.2338 8.54779 95.1591 8.97165 95.0105 9.39551C94.8611 9.81937 94.6377 10.102 94.4144 10.3139C94.1163 10.5258 93.8183 10.6671 93.3716 10.6671C92.9249 10.6671 92.5522 10.5965 92.3288 10.3139C92.0308 10.102 91.8075 9.81937 91.7327 9.39551C91.5841 9.04228 91.5094 8.54779 91.5094 8.0533C91.5094 7.48816 91.5841 7.0643 91.7327 6.71109Z" fill="black"/>
<path d="M62.3853 19.3563C62.0128 19.0031 61.5659 18.7205 61.0445 18.5792C60.5231 18.438 60.0016 18.2966 59.4058 18.2966C58.512 18.2966 57.7671 18.438 57.0967 18.8618C56.4263 19.215 55.9794 19.7095 55.607 20.4159C55.2345 21.0517 55.0856 21.8288 55.0856 22.7472C55.0856 23.6655 55.2345 24.4426 55.607 25.0784C55.9794 25.7142 56.5008 26.2087 57.0967 26.5619C57.7671 26.9151 58.5864 27.127 59.4803 27.127C60.2251 27.127 60.8955 27.0564 61.4169 26.8445C62.0128 26.6325 62.4597 26.35 62.8322 25.9262C63.2046 25.5023 63.428 25.0784 63.5025 24.5839L61.1934 24.4426C61.119 24.6545 60.97 24.8665 60.821 25.0077C60.6721 25.1491 60.4486 25.2903 60.2251 25.361C60.0016 25.4316 59.7782 25.4316 59.4803 25.4316C59.0333 25.4316 58.7354 25.361 58.4375 25.1491C58.1395 25.0077 57.9161 24.7252 57.7671 24.4426C57.6181 24.16 57.5436 23.8068 57.5436 23.3829H63.6515V22.6059C63.6515 21.8995 63.5771 21.2636 63.3536 20.6985C63.0556 20.204 62.7577 19.7095 62.3853 19.3563ZM57.5436 21.7582C57.5436 21.4756 57.6181 21.193 57.7671 20.9104C57.9161 20.6279 58.1395 20.4159 58.4375 20.2747C58.7354 20.1334 59.0333 19.9921 59.4058 19.9921C59.7782 19.9921 60.0762 20.0627 60.3741 20.204C60.6721 20.3453 60.8955 20.5573 61.0445 20.8398C61.1935 21.1224 61.2679 21.405 61.2679 21.7582H57.5436Z" fill="black"/>
<path d="M71.0998 19.8508H71.0254C70.9508 19.6388 70.7274 19.4269 70.5784 19.1443C70.3549 18.8617 70.1315 18.7205 69.7591 18.5792C69.3866 18.4379 69.0142 18.2966 68.4928 18.2966C67.8224 18.2966 67.2265 18.4379 66.7051 18.7911C66.1838 19.1443 65.7368 19.6388 65.3644 20.2747C64.992 20.9104 64.843 21.7581 64.843 22.6765C64.843 23.6655 64.992 24.4426 65.2899 25.0784C65.5878 25.7142 66.0347 26.2087 66.6307 26.5619C67.1521 26.9151 67.8224 27.0564 68.4928 27.0564C68.9397 27.0564 69.3866 26.9858 69.6846 26.7738C69.9825 26.6325 70.2805 26.4206 70.5039 26.2087C70.7274 25.9968 70.8763 25.7848 71.0254 25.5022H71.0998V26.8445H73.5578V15.5415H71.0998V19.8508ZM70.9508 24.0187C70.8019 24.372 70.5784 24.6545 70.2805 24.8665C69.9825 25.0784 69.6846 25.2197 69.2377 25.2197C68.7908 25.2197 68.4928 25.1491 68.2693 24.9371C67.9714 24.7252 67.8224 24.4426 67.6735 24.0187C67.5245 23.5949 67.45 23.171 67.45 22.6765C67.45 22.182 67.5245 21.7581 67.6735 21.405C67.8224 21.0517 68.0459 20.7691 68.2693 20.5572C68.5673 20.3453 68.8653 20.204 69.3122 20.204C69.6846 20.204 70.057 20.2747 70.3549 20.4865C70.6529 20.6985 70.8763 20.9811 71.0254 21.3343C71.1743 21.6875 71.2488 22.182 71.2488 22.6765C71.2488 23.171 71.0998 23.5949 70.9508 24.0187Z" fill="black"/>
<path d="M81.3787 23.3122C81.3787 23.6654 81.3042 24.0186 81.1552 24.2305C81.0062 24.5131 80.7827 24.725 80.5593 24.7956C80.2613 24.937 80.0379 25.0076 79.74 25.0076C79.293 25.0076 78.9206 24.8663 78.6227 24.5837C78.3247 24.3011 78.1758 23.8773 78.1758 23.3828V18.4377H75.7177V23.8066C75.7177 24.4425 75.8667 25.0782 76.0902 25.5021C76.388 25.9966 76.686 26.3498 77.1329 26.5618C77.5798 26.8443 78.1012 26.9856 78.6972 26.9856C79.3675 26.9856 79.8889 26.8443 80.4104 26.5618C80.8573 26.2792 81.2296 25.8553 81.3787 25.3608H81.4531V26.915H83.8363V18.4377H81.3787V23.3122Z" fill="black"/>
<path d="M91.2105 24.5838C91.0619 24.7958 90.8385 24.937 90.6152 25.0783C90.3919 25.2196 90.1677 25.2196 89.8697 25.2196C89.4977 25.2196 89.125 25.1489 88.8269 24.937C88.5297 24.7251 88.3055 24.4425 88.1569 24.0893C88.0083 23.6655 87.9336 23.2416 87.9336 22.6765C87.9336 22.1819 88.0083 21.6874 88.1569 21.3342C88.3055 20.9103 88.6036 20.6984 88.8269 20.4865C89.125 20.2746 89.423 20.204 89.7958 20.204C90.2424 20.204 90.6152 20.3452 90.9133 20.6278C91.2105 20.9103 91.3599 21.1929 91.4347 21.6168H93.8174C93.7435 20.981 93.5941 20.4158 93.2222 19.9214C92.8494 19.4269 92.4027 19.0736 91.8066 18.791C91.2105 18.5085 90.5405 18.3672 89.7958 18.3672C88.9016 18.3672 88.0822 18.5084 87.4122 18.9324C86.7413 19.2855 86.2947 19.7801 85.9219 20.4865C85.55 21.1223 85.4005 21.8994 85.4005 22.7471C85.4005 23.5948 85.55 24.3719 85.9219 25.0077C86.2947 25.6435 86.8161 26.138 87.4122 26.5618C88.0822 26.9151 88.8269 27.127 89.7958 27.127C90.6152 27.127 91.3599 26.9857 91.8813 26.7031C92.4774 26.4206 92.9241 26.0673 93.2222 25.5728C93.5202 25.0783 93.7435 24.5132 93.7435 23.8773H91.3599C91.4347 24.1599 91.3599 24.3719 91.2105 24.5838Z" fill="black"/>
<path d="M101.862 19.0736C101.49 18.791 101.043 18.6497 100.67 18.579C100.224 18.4377 99.7021 18.4377 99.2555 18.4377C98.5846 18.4377 97.9146 18.5084 97.3932 18.7203C96.8718 18.9322 96.4252 19.2148 96.0524 19.5681C95.6796 19.9213 95.4563 20.4158 95.3824 20.9103L97.6913 21.0515C97.7652 20.769 97.9893 20.557 98.2127 20.3451C98.5107 20.2038 98.8088 20.0625 99.2555 20.0625C99.7021 20.0625 100 20.1332 100.224 20.3451C100.447 20.557 100.596 20.8396 100.596 21.1929C100.596 21.3341 100.522 21.5461 100.373 21.6167C100.224 21.6873 100 21.758 99.7021 21.8286C99.4041 21.8992 98.9574 21.8992 98.436 21.9699C97.9893 21.9699 97.5418 22.0406 97.1699 22.1818C96.7971 22.2525 96.4252 22.4644 96.1271 22.6057C95.7543 22.8177 95.531 23.0296 95.3824 23.3828C95.233 23.736 95.0844 24.0892 95.0844 24.5837C95.0844 25.1488 95.233 25.5727 95.4563 25.9966C95.6796 26.3498 96.0524 26.6324 96.4991 26.8443C96.9466 26.9856 97.468 27.1269 97.9893 27.1269C98.436 27.1269 98.8088 27.0562 99.1807 27.0562C99.5535 26.915 99.7768 26.7736 100.075 26.5618C100.298 26.3498 100.522 26.1379 100.67 25.8553H100.745V26.9856H103.129V21.2635C103.129 20.769 103.054 20.3451 102.83 19.9919C102.532 19.6387 102.234 19.2855 101.862 19.0736ZM100.522 23.8773C100.522 24.1599 100.447 24.4425 100.298 24.6544C100.149 24.937 99.9255 25.0782 99.6274 25.2195C99.3302 25.3608 99.0321 25.4314 98.6593 25.4314C98.2866 25.4314 97.9893 25.3608 97.7652 25.1488C97.5419 25.0076 97.3932 24.725 97.3932 24.3718C97.3932 24.1599 97.468 23.9479 97.5418 23.8066C97.6166 23.6654 97.8399 23.524 98.0632 23.4534C98.2866 23.3828 98.5107 23.3122 98.8088 23.2415C98.9574 23.2415 99.106 23.1709 99.2555 23.1709C99.4041 23.1709 99.6274 23.1002 99.7768 23.1002C99.9255 23.1002 100.075 23.0296 100.224 23.0296C100.373 23.0296 100.447 22.9589 100.522 22.8883V23.8773Z" fill="black"/>
<path d="M109.163 25.0784C109.088 25.0784 108.939 25.0784 108.79 25.0784C108.641 25.0784 108.492 25.0784 108.343 25.0077C108.194 24.9371 108.12 24.8664 108.045 24.7251C107.97 24.6545 107.97 24.4425 107.97 24.2307V20.1333H109.609V18.3673H108.045V16.3186H105.587V18.3673H104.321V20.1333H105.512V24.5132C105.512 25.0784 105.587 25.5022 105.885 25.9261C106.183 26.2793 106.481 26.5619 106.928 26.7738C107.374 26.9151 107.896 27.0564 108.492 26.9858C108.79 26.9858 109.088 26.9151 109.311 26.9151C109.535 26.8444 109.684 26.8444 109.833 26.7738L109.46 25.0077C109.386 25.0784 109.311 25.0784 109.163 25.0784Z" fill="black"/>
<path d="M113.482 15.3295C113.184 15.1176 112.887 14.9763 112.514 14.9763C112.142 14.9763 111.844 15.1176 111.546 15.3295C111.248 15.6121 111.174 15.824 111.174 16.1773C111.174 16.5304 111.322 16.813 111.546 17.025C111.844 17.2369 112.142 17.3781 112.514 17.3781C112.887 17.3781 113.184 17.2369 113.482 17.025C113.78 16.813 113.855 16.5304 113.855 16.1773C113.855 15.824 113.78 15.5414 113.482 15.3295Z" fill="black"/>
<path d="M113.78 18.4377H111.323V26.915H113.78V18.4377Z" fill="black"/>
<path d="M122.123 18.8618C121.453 18.5086 120.707 18.2966 119.739 18.2966C118.846 18.2966 118.026 18.438 117.355 18.8618C116.685 19.215 116.238 19.7095 115.866 20.4159C115.493 21.0517 115.345 21.8288 115.345 22.7472C115.345 23.5949 115.493 24.372 115.866 25.0077C116.238 25.6436 116.76 26.138 117.355 26.5619C118.026 26.9151 118.771 27.127 119.739 27.127C120.633 27.127 121.453 26.9858 122.123 26.5619C122.793 26.2087 123.24 25.7142 123.612 25.0077C123.985 24.372 124.133 23.5949 124.133 22.7472C124.133 21.8288 123.985 21.1224 123.612 20.4159C123.315 19.7802 122.793 19.2857 122.123 18.8618ZM121.453 24.0188C121.303 24.4426 121.08 24.7252 120.857 24.9371C120.558 25.1491 120.26 25.2903 119.814 25.2903C119.367 25.2903 118.994 25.2197 118.771 24.9371C118.473 24.7252 118.25 24.4426 118.175 24.0188C118.026 23.6655 117.952 23.171 117.952 22.6766C117.952 22.1821 118.026 21.7582 118.175 21.3343C118.324 20.9105 118.548 20.6279 118.771 20.4159C119.069 20.204 119.367 20.0627 119.814 20.0627C120.186 20.0627 120.558 20.204 120.857 20.4159C121.155 20.6279 121.378 20.9811 121.453 21.3343C121.601 21.6875 121.676 22.1821 121.676 22.6766C121.676 23.171 121.601 23.5949 121.453 24.0188Z" fill="black"/>
<path d="M133.668 19.8507C133.445 19.3562 133.072 19.003 132.625 18.791C132.178 18.5085 131.657 18.3672 130.986 18.3672C130.316 18.3672 129.795 18.5085 129.273 18.791C128.827 19.0736 128.454 19.4269 128.305 19.9214H128.156V18.4378H125.772V26.9151H128.231V22.0407C128.231 21.6874 128.305 21.4048 128.379 21.1223C128.529 20.8397 128.752 20.6278 128.975 20.5571C129.199 20.4158 129.497 20.3452 129.87 20.3452C130.391 20.3452 130.763 20.4865 131.061 20.7691C131.359 21.0517 131.508 21.4755 131.508 21.97V26.9857H133.966V21.6168C134.041 20.8397 133.891 20.2746 133.668 19.8507Z" fill="black"/>
</svg>
