<svg width="886" height="587" viewBox="0 0 886 587" fill="none" xmlns="http://www.w3.org/2000/svg">
<mask id="path-1-outside-1_358_75" maskUnits="userSpaceOnUse" x="-71.1039" y="-1.38541" width="891.685" height="297.957" fill="black">
<rect fill="white" x="-71.1039" y="-1.38541" width="891.685" height="297.957"/>
<path d="M-61.5672 254.567C-42.7878 253.978 -8.54398 270.582 28.574 251.742C65.692 232.902 75.1178 170.69 116.599 164.136C158.08 157.583 185.731 223.897 227.684 220.285C269.637 216.673 277.393 158.967 317.974 146.798C358.554 134.629 381.718 172.973 422.47 161.874C463.222 150.775 472.703 103.818 513.584 93.5209C554.464 83.2237 577.217 119.001 618.698 112.448C660.179 105.894 671.041 67.5478 712.694 62.0639C754.347 56.5799 796.561 81.1119 818.631 86.1246"/>
</mask>
<path d="M-61.529 253.553C-62.0729 253.57 -62.531 254.038 -62.552 254.597C-62.5731 255.157 -62.1493 255.597 -61.6054 255.58L-61.529 253.553ZM818.357 87.1158C818.879 87.2345 819.426 86.887 819.578 86.3396C819.73 85.7921 819.429 85.2521 818.906 85.1334L818.357 87.1158ZM-61.6054 255.58C-57.0284 255.437 -51.4651 256.343 -45.017 257.525C-38.6031 258.702 -31.3611 260.141 -23.5455 261.007C-7.89781 262.741 10.1572 262.189 28.9596 252.646L28.1884 250.838C9.8728 260.135 -7.75308 260.701 -23.2016 258.99C-30.9342 258.133 -38.0941 256.71 -44.5426 255.527C-50.9568 254.351 -56.7163 253.402 -61.529 253.553L-61.6054 255.58ZM28.9596 252.646C38.4335 247.837 46.0996 240.281 52.9027 231.632C59.695 222.996 65.6919 213.18 71.7576 203.855C83.9659 185.086 96.4541 168.334 116.682 165.138L116.516 163.134C95.2626 166.492 82.2973 184.123 70.1429 202.809C64.0273 212.211 58.1155 221.891 51.4048 230.423C44.7048 238.941 37.2734 246.227 28.1884 250.838L28.9596 252.646ZM116.682 165.138C126.764 163.546 136.055 166.368 145.03 171.546C154.02 176.732 162.61 184.232 171.294 191.897C179.948 199.536 188.695 207.339 197.915 212.995C207.145 218.657 216.936 222.222 227.698 221.296L227.67 219.274C217.455 220.154 208.057 216.784 199.008 211.233C189.947 205.675 181.323 197.987 172.635 190.319C163.977 182.676 155.254 175.051 146.082 169.76C136.896 164.46 127.175 161.45 116.516 163.134L116.682 165.138ZM227.698 221.296C249.186 219.446 261.879 203.698 274.109 187.333C286.433 170.843 298.3 153.734 318.188 147.77L317.76 145.826C297.067 152.031 284.766 169.859 272.578 186.168C260.297 202.601 248.135 217.512 227.67 219.274L227.698 221.296ZM318.188 147.77C338.108 141.797 353.753 148.191 369.734 154.878C385.658 161.542 401.922 168.502 422.66 162.853L422.281 160.895C402.267 166.346 386.572 159.683 370.582 152.991C354.647 146.323 338.42 139.63 317.76 145.826L318.188 147.77ZM422.66 162.853C443.386 157.208 456.145 142.427 468.692 128.045C481.288 113.606 493.674 99.5633 513.755 94.5052L513.413 92.5366C492.613 97.7757 479.818 112.36 467.266 126.749C454.665 141.193 442.307 155.44 422.281 160.895L422.66 162.853ZM513.755 94.5052C533.85 89.4435 549.496 95.6805 565.485 102.521C581.428 109.342 597.728 116.776 618.781 113.45L618.615 111.445C598.186 114.673 582.369 107.495 566.346 100.64C550.369 93.8043 534.198 87.3011 513.413 92.5366L513.755 94.5052ZM618.781 113.45C639.836 110.123 653.128 98.7025 666.225 87.6199C679.332 76.5292 692.25 65.7691 712.752 63.0698L712.636 61.0579C691.485 63.8426 678.146 74.9975 665.038 86.0893C651.92 97.1892 639.041 108.218 618.615 111.445L618.781 113.45ZM712.752 63.0698C733.364 60.356 754.17 65.0656 772.649 71.1264C781.884 74.1555 790.507 77.5111 798.23 80.4341C805.93 83.3488 812.766 85.8461 818.357 87.1158L818.906 85.1334C813.461 83.8967 806.744 81.4478 799.021 78.5243C791.319 75.6091 782.647 72.2346 773.363 69.1896C754.804 63.1022 733.677 58.2877 712.636 61.0579L712.752 63.0698Z" fill="#F1F0F0" mask="url(#path-1-outside-1_358_75)"/>
<mask id="path-3-outside-2_358_75" maskUnits="userSpaceOnUse" x="-24.1604" y="291.259" width="891.685" height="297.957" fill="black">
<rect fill="white" x="-24.1604" y="291.259" width="891.685" height="297.957"/>
<path d="M-14.6237 547.211C4.15575 546.622 38.3996 563.226 75.5175 544.386C112.635 525.546 122.061 463.334 163.543 456.78C205.024 450.227 232.674 516.541 274.628 512.929C316.581 509.317 324.337 451.611 364.917 439.442C405.498 427.273 428.662 465.617 469.414 454.518C510.166 443.419 519.647 396.462 560.527 386.165C601.408 375.868 624.16 411.645 665.641 405.091C707.123 398.538 717.984 360.192 759.637 354.708C801.29 349.224 843.505 373.756 865.575 378.769"/>
</mask>
<path d="M-14.5855 546.197C-15.1294 546.214 -15.5874 546.681 -15.6085 547.241C-15.6296 547.801 -15.2058 548.241 -14.6619 548.224L-14.5855 546.197ZM865.3 379.76C865.823 379.878 866.37 379.531 866.521 378.983C866.673 378.436 866.373 377.896 865.85 377.777L865.3 379.76ZM-14.6619 548.224C-10.0849 548.081 -4.52158 548.987 1.92656 550.169C8.34041 551.346 15.5825 552.785 23.398 553.651C39.0457 555.384 57.1007 554.833 75.9031 545.29L75.1319 543.482C56.8163 552.779 39.1905 553.345 23.7419 551.634C16.0093 550.777 8.84944 549.354 2.40093 548.171C-4.01329 546.995 -9.77278 546.046 -14.5855 546.197L-14.6619 548.224ZM75.9031 545.29C85.3771 540.481 93.0431 532.925 99.8463 524.276C106.639 515.64 112.635 505.824 118.701 496.499C130.909 477.73 143.398 460.978 163.626 457.782L163.459 455.778C142.206 459.136 129.241 476.767 117.086 495.453C110.971 504.855 105.059 514.535 98.3483 523.067C91.6484 531.585 84.217 538.871 75.1319 543.482L75.9031 545.29ZM163.626 457.782C173.707 456.19 182.998 459.011 191.974 464.19C200.964 469.376 209.554 476.875 218.237 484.54C226.891 492.18 235.639 499.983 244.858 505.639C254.089 511.301 263.88 514.866 274.642 513.94L274.613 511.918C264.399 512.798 255.001 509.428 245.952 503.877C236.891 498.319 228.267 490.631 219.579 482.963C210.921 475.32 202.198 467.695 193.026 462.404C183.839 457.104 174.119 454.094 163.459 455.778L163.626 457.782ZM274.642 513.94C296.13 512.09 308.823 496.342 321.053 479.977C333.376 463.487 345.243 446.378 365.132 440.414L364.703 438.469C344.011 444.675 331.71 462.503 319.521 478.812C307.24 495.245 295.078 510.156 274.613 511.918L274.642 513.94ZM365.132 440.414C385.051 434.441 400.697 440.835 416.677 447.522C432.602 454.186 448.865 461.146 469.603 455.497L469.224 453.538C449.211 458.989 433.516 452.327 417.526 445.635C401.591 438.967 385.364 432.274 364.703 438.469L365.132 440.414ZM469.603 455.497C490.329 449.852 503.088 435.071 515.635 420.689C528.231 406.25 540.617 392.207 560.698 387.149L560.356 385.181C539.557 390.42 526.762 405.004 514.209 419.393C501.608 433.837 489.25 448.084 469.224 453.538L469.603 455.497ZM560.698 387.149C580.793 382.087 596.439 388.324 612.428 395.165C628.372 401.986 644.672 409.42 665.725 406.094L665.558 404.089C645.13 407.317 629.313 400.139 613.29 393.284C597.313 386.448 581.142 379.945 560.356 385.181L560.698 387.149ZM665.725 406.094C686.78 402.767 700.072 391.346 713.169 380.264C726.275 369.173 739.193 358.413 759.695 355.714L759.579 353.702C738.429 356.487 725.089 367.641 711.981 378.733C698.864 389.833 685.984 400.862 665.558 404.089L665.725 406.094ZM759.695 355.714C780.307 353 801.114 357.71 819.592 363.77C828.828 366.799 837.451 370.155 845.173 373.078C852.874 375.993 859.71 378.49 865.3 379.76L865.85 377.777C860.405 376.541 853.688 374.092 845.964 371.168C838.262 368.253 829.591 364.879 820.307 361.833C801.747 355.746 780.62 350.932 759.579 353.702L759.695 355.714Z" fill="#F1F0F0" mask="url(#path-3-outside-2_358_75)"/>
<mask id="path-5-outside-3_358_75" maskUnits="userSpaceOnUse" x="-31.9843" y="242.485" width="891.685" height="297.957" fill="black">
<rect fill="white" x="-31.9843" y="242.485" width="891.685" height="297.957"/>
<path d="M-22.4476 498.437C-3.66817 497.848 30.5756 514.452 67.6936 495.612C104.812 476.772 114.237 414.56 155.719 408.006C197.2 401.453 224.851 467.767 266.804 464.155C308.757 460.543 316.513 402.837 357.093 390.668C397.674 378.499 420.838 416.843 461.59 405.744C502.342 394.645 511.823 347.688 552.703 337.391C593.584 327.094 616.336 362.871 657.818 356.318C699.299 349.764 710.161 311.418 751.813 305.934C793.466 300.45 835.681 324.982 857.751 329.995"/>
</mask>
<path d="M-22.4094 497.423C-22.9533 497.44 -23.4113 497.908 -23.4324 498.467C-23.4535 499.027 -23.0297 499.467 -22.4858 499.45L-22.4094 497.423ZM857.476 330.986C857.999 331.104 858.546 330.757 858.698 330.21C858.849 329.662 858.549 329.122 858.026 329.003L857.476 330.986ZM-22.4858 499.45C-17.9088 499.307 -12.3455 500.213 -5.89736 501.395C0.516497 502.572 7.75856 504.011 15.5741 504.877C31.2218 506.61 49.2768 506.059 68.0792 496.516L67.308 494.708C48.9924 504.005 31.3666 504.571 15.918 502.86C8.18543 502.003 1.02553 500.58 -5.42298 499.397C-11.8372 498.221 -17.5967 497.272 -22.4094 497.423L-22.4858 499.45ZM68.0792 496.516C77.5532 491.707 85.2192 484.151 92.0223 475.502C98.8147 466.866 104.812 457.05 110.877 447.725C123.086 428.956 135.574 412.204 155.802 409.008L155.636 407.004C134.382 410.362 121.417 427.993 109.263 446.679C103.147 456.081 97.2351 465.761 90.5244 474.293C83.8244 482.811 76.3931 490.097 67.308 494.708L68.0792 496.516ZM155.802 409.008C165.883 407.416 175.174 410.237 184.15 415.416C193.14 420.602 201.73 428.102 210.413 435.767C219.067 443.406 227.815 451.209 237.034 456.865C246.265 462.527 256.056 466.092 266.818 465.166L266.789 463.144C256.575 464.024 247.177 460.654 238.128 455.103C229.067 449.545 220.443 441.857 211.755 434.189C203.097 426.546 194.374 418.921 185.202 413.63C176.016 408.33 166.295 405.32 155.636 407.004L155.802 409.008ZM266.818 465.166C288.306 463.316 300.999 447.568 313.229 431.203C325.552 414.713 337.42 397.604 357.308 391.64L356.879 389.696C336.187 395.901 323.886 413.729 311.698 430.038C299.416 446.471 287.254 461.382 266.789 463.144L266.818 465.166ZM357.308 391.64C377.228 385.667 392.873 392.061 408.853 398.748C424.778 405.412 441.041 412.372 461.78 406.723L461.4 404.765C441.387 410.216 425.692 403.553 409.702 396.861C393.767 390.193 377.54 383.5 356.879 389.696L357.308 391.64ZM461.78 406.723C482.506 401.078 495.264 386.297 507.811 371.915C520.407 357.476 532.793 343.433 552.874 338.375L552.532 336.407C531.733 341.646 518.938 356.23 506.386 370.619C493.784 385.063 481.426 399.31 461.4 404.765L461.78 406.723ZM552.874 338.375C572.97 333.314 588.615 339.55 604.604 346.391C620.548 353.212 636.848 360.646 657.901 357.32L657.734 355.315C637.306 358.543 621.489 351.365 605.466 344.51C589.489 337.674 573.318 331.171 552.532 336.407L552.874 338.375ZM657.901 357.32C678.956 353.993 692.248 342.573 705.345 331.49C718.451 320.399 731.369 309.639 751.871 306.94L751.755 304.928C730.605 307.713 717.265 318.867 704.157 329.959C691.04 341.059 678.16 352.088 657.734 355.315L657.901 357.32ZM751.871 306.94C772.483 304.226 793.29 308.936 811.769 314.996C821.004 318.025 829.627 321.381 837.349 324.304C845.05 327.219 851.886 329.716 857.476 330.986L858.026 329.003C852.581 327.767 845.864 325.318 838.14 322.394C830.438 319.479 821.767 316.105 812.483 313.06C793.923 306.972 772.796 302.158 751.755 304.928L751.871 306.94Z" fill="#F1F0F0" mask="url(#path-5-outside-3_358_75)"/>
<mask id="path-7-outside-4_358_75" maskUnits="userSpaceOnUse" x="-39.8082" y="193.711" width="891.685" height="297.957" fill="black">
<rect fill="white" x="-39.8082" y="193.711" width="891.685" height="297.957"/>
<path d="M-30.2715 449.663C-11.4921 449.074 22.7517 465.678 59.8697 446.838C96.9877 427.999 106.413 365.786 147.895 359.232C189.376 352.679 217.027 418.993 258.98 415.381C300.933 411.769 308.689 354.063 349.27 341.894C389.85 329.725 413.014 368.069 453.766 356.97C494.518 345.871 503.999 298.914 544.879 288.617C585.76 278.32 608.512 314.097 649.994 307.544C691.475 300.99 702.337 262.644 743.989 257.16C785.642 251.676 827.857 276.208 849.927 281.221"/>
</mask>
<path d="M-30.2333 448.649C-30.7772 448.666 -31.2352 449.134 -31.2563 449.694C-31.2774 450.253 -30.8536 450.693 -30.3097 450.676L-30.2333 448.649ZM849.652 282.212C850.175 282.331 850.722 281.983 850.874 281.436C851.026 280.888 850.725 280.348 850.202 280.229L849.652 282.212ZM-30.3097 450.676C-25.7327 450.533 -20.1694 451.439 -13.7213 452.621C-7.30742 453.798 -0.0653522 455.237 7.75017 456.103C23.3979 457.837 41.4529 457.285 60.2553 447.742L59.4841 445.934C41.1685 455.231 23.5426 455.797 8.09412 454.086C0.361519 453.23 -6.79839 451.806 -13.2469 450.623C-19.6611 449.447 -25.4206 448.498 -30.2333 448.649L-30.3097 450.676ZM60.2553 447.742C69.7292 442.933 77.3953 435.377 84.1984 426.728C90.9907 418.092 96.9876 408.276 103.053 398.951C115.262 380.182 127.75 363.43 147.978 360.235L147.812 358.23C126.558 361.588 113.593 379.219 101.439 397.905C95.323 407.307 89.4112 416.987 82.7005 425.519C76.0005 434.038 68.5691 441.323 59.4841 445.934L60.2553 447.742ZM147.978 360.235C158.059 358.642 167.35 361.464 176.326 366.642C185.316 371.828 193.906 379.328 202.589 386.993C211.244 394.632 219.991 402.435 229.21 408.091C238.441 413.753 248.232 417.318 258.994 416.392L258.965 414.37C248.751 415.25 239.353 411.88 230.304 406.329C221.243 400.772 212.619 393.084 203.931 385.415C195.273 377.772 186.55 370.147 177.378 364.856C168.192 359.556 158.471 356.546 147.812 358.23L147.978 360.235ZM258.994 416.392C280.482 414.542 293.175 398.794 305.405 382.429C317.728 365.939 329.596 348.83 349.484 342.866L349.055 340.922C328.363 347.127 316.062 364.955 303.874 381.264C291.592 397.697 279.43 412.608 258.965 414.37L258.994 416.392ZM349.484 342.866C369.404 336.893 385.049 343.287 401.029 349.974C416.954 356.638 433.217 363.598 453.956 357.949L453.577 355.991C433.563 361.442 417.868 354.779 401.878 348.087C385.943 341.419 369.716 334.726 349.055 340.922L349.484 342.866ZM453.956 357.949C474.682 352.304 487.44 337.523 499.987 323.141C512.584 308.702 524.969 294.659 545.05 289.601L544.709 287.633C523.909 292.872 511.114 307.456 498.562 321.845C485.96 336.29 473.603 350.536 453.577 355.991L453.956 357.949ZM545.05 289.601C565.146 284.54 580.791 290.777 596.78 297.617C612.724 304.438 629.024 311.872 650.077 308.546L649.911 306.541C629.482 309.769 613.665 302.591 597.642 295.736C581.665 288.9 565.494 282.397 544.709 287.633L545.05 289.601ZM650.077 308.546C671.132 305.219 684.424 293.799 697.521 282.716C710.628 271.625 723.545 260.865 744.047 258.166L743.931 256.154C722.781 258.939 709.441 270.094 696.333 281.185C683.216 292.285 670.336 303.314 649.911 306.541L650.077 308.546ZM744.047 258.166C764.659 255.452 785.466 260.162 803.945 266.223C813.18 269.252 821.803 272.607 829.526 275.53C837.226 278.445 844.062 280.942 849.652 282.212L850.202 280.229C844.757 278.993 838.04 276.544 830.316 273.62C822.615 270.705 813.943 267.331 804.659 264.286C786.099 258.198 764.972 253.384 743.931 256.154L744.047 258.166Z" fill="#F1F0F0" mask="url(#path-7-outside-4_358_75)"/>
<mask id="path-9-outside-5_358_75" maskUnits="userSpaceOnUse" x="-47.6322" y="144.936" width="891.685" height="297.957" fill="black">
<rect fill="white" x="-47.6322" y="144.936" width="891.685" height="297.957"/>
<path d="M-38.0955 400.888C-19.3161 400.3 14.9278 416.904 52.0457 398.064C89.1637 379.224 98.5895 317.012 140.071 310.458C181.552 303.905 209.203 370.219 251.156 366.607C293.109 362.995 300.865 305.289 341.446 293.12C382.026 280.951 405.19 319.295 445.942 308.196C486.694 297.096 496.175 250.14 537.055 239.843C577.936 229.546 600.688 265.323 642.17 258.769C683.651 252.216 694.513 213.87 736.165 208.386C777.818 202.902 820.033 227.434 842.103 232.447"/>
</mask>
<path d="M-38.0573 399.875C-38.6012 399.892 -39.0592 400.359 -39.0803 400.919C-39.1014 401.479 -38.6776 401.919 -38.1337 401.902L-38.0573 399.875ZM841.828 233.438C842.351 233.556 842.898 233.209 843.05 232.661C843.202 232.114 842.901 231.574 842.378 231.455L841.828 233.438ZM-38.1337 401.902C-33.5567 401.759 -27.9934 402.665 -21.5452 403.847C-15.1314 405.023 -7.88933 406.463 -0.0738027 407.329C15.5739 409.062 33.6289 408.511 52.4313 398.968L51.6601 397.16C33.3445 406.457 15.7187 407.023 0.270144 405.312C-7.46246 404.455 -14.6224 403.032 -21.0709 401.849C-27.4851 400.673 -33.2446 399.724 -38.0573 399.875L-38.1337 401.902ZM52.4313 398.968C61.9053 394.159 69.5713 386.603 76.3745 377.954C83.1668 369.318 89.1636 359.502 95.2293 350.177C107.438 331.408 119.926 314.656 140.154 311.46L139.988 309.456C118.734 312.814 105.769 330.445 93.6147 349.131C87.499 358.533 81.5872 368.212 74.8765 376.745C68.1766 385.263 60.7452 392.549 51.6601 397.16L52.4313 398.968ZM140.154 311.46C150.235 309.868 159.526 312.689 168.502 317.868C177.492 323.054 186.082 330.553 194.765 338.218C203.42 345.858 212.167 353.661 221.386 359.317C230.617 364.979 240.408 368.544 251.17 367.618L251.141 365.596C240.927 366.476 231.529 363.106 222.48 357.555C213.419 351.997 204.795 344.309 196.107 336.641C187.449 328.998 178.726 321.373 169.554 316.081C160.368 310.782 150.647 307.772 139.988 309.456L140.154 311.46ZM251.17 367.618C272.658 365.768 285.351 350.02 297.581 333.655C309.904 317.165 321.772 300.056 341.66 294.092L341.231 292.147C320.539 298.352 308.238 316.181 296.05 332.49C283.768 348.923 271.606 363.834 251.141 365.596L251.17 367.618ZM341.66 294.092C361.58 288.119 377.225 294.513 393.205 301.2C409.13 307.864 425.393 314.824 446.132 309.175L445.753 307.216C425.739 312.667 410.044 306.005 394.054 299.313C378.119 292.645 361.892 285.952 341.231 292.147L341.66 294.092ZM446.132 309.175C466.858 303.53 479.616 288.749 492.163 274.367C504.76 259.928 517.145 245.885 537.226 240.827L536.885 238.858C516.085 244.098 503.29 258.682 490.738 273.07C478.136 287.515 465.779 301.762 445.753 307.216L446.132 309.175ZM537.226 240.827C557.322 235.765 572.967 242.002 588.957 248.843C604.9 255.664 621.2 263.098 642.253 259.772L642.087 257.767C621.658 260.995 605.841 253.817 589.818 246.962C573.841 240.126 557.67 233.623 536.885 238.858L537.226 240.827ZM642.253 259.772C663.308 256.445 676.6 245.024 689.697 233.942C702.804 222.851 715.721 212.091 736.223 209.392L736.108 207.38C714.957 210.164 701.617 221.319 688.509 232.411C675.392 243.511 662.512 254.54 642.087 257.767L642.253 259.772ZM736.223 209.392C756.835 206.678 777.642 211.388 796.121 217.448C805.356 220.477 813.979 223.833 821.702 226.756C829.402 229.671 836.238 232.168 841.828 233.438L842.378 231.455C836.933 230.219 830.216 227.77 822.492 224.846C814.791 221.931 806.119 218.557 796.835 215.511C778.275 209.424 757.148 204.61 736.108 207.38L736.223 209.392Z" fill="#F1F0F0" mask="url(#path-9-outside-5_358_75)"/>
<mask id="path-11-outside-6_358_75" maskUnits="userSpaceOnUse" x="-55.456" y="96.1627" width="891.685" height="297.957" fill="black">
<rect fill="white" x="-55.456" y="96.1627" width="891.685" height="297.957"/>
<path d="M-45.9193 352.115C-27.1399 351.526 7.10391 368.13 44.2219 349.29C81.3398 330.451 90.7656 268.238 132.247 261.684C173.728 255.131 201.379 321.445 243.332 317.833C285.285 314.221 293.041 256.515 333.622 244.346C374.202 232.177 397.366 270.521 438.118 259.422C478.87 248.323 488.351 201.366 529.232 191.069C570.112 180.772 592.864 216.549 634.346 209.996C675.827 203.442 686.689 165.096 728.342 159.612C769.994 154.128 812.209 178.66 834.279 183.673"/>
</mask>
<path d="M-45.8811 351.101C-46.425 351.118 -46.8831 351.586 -46.9042 352.146C-46.9252 352.705 -46.5014 353.145 -45.9575 353.128L-45.8811 351.101ZM834.004 184.664C834.527 184.783 835.074 184.435 835.226 183.888C835.378 183.34 835.077 182.8 834.554 182.682L834.004 184.664ZM-45.9575 353.128C-41.3805 352.985 -35.8172 353.891 -29.3691 355.073C-22.9552 356.25 -15.7132 357.689 -7.89766 358.555C7.75008 360.289 25.8051 359.737 44.6074 350.194L43.8363 348.386C25.5207 357.683 7.89481 358.25 -7.55371 356.538C-15.2863 355.682 -22.4462 354.258 -28.8947 353.076C-35.3089 351.899 -41.0684 350.95 -45.8811 351.101L-45.9575 353.128ZM44.6074 350.194C54.0814 345.385 61.7475 337.83 68.5506 329.18C75.3429 320.544 81.3398 310.728 87.4055 301.403C99.6138 282.634 112.102 265.882 132.33 262.687L132.164 260.682C110.911 264.04 97.9452 281.671 85.7908 300.357C79.6752 309.759 73.7634 319.439 67.0526 327.971C60.3527 336.49 52.9213 343.775 43.8363 348.386L44.6074 350.194ZM132.33 262.687C142.412 261.094 151.702 263.916 160.678 269.094C169.668 274.28 178.258 281.78 186.942 289.445C195.596 297.084 204.343 304.888 213.562 310.543C222.793 316.205 232.584 319.77 243.346 318.844L243.318 316.822C233.103 317.702 223.705 314.332 214.656 308.781C205.595 303.224 196.971 295.536 188.283 287.867C179.625 280.224 170.902 272.599 161.73 267.308C152.544 262.008 142.823 258.998 132.164 260.682L132.33 262.687ZM243.346 318.844C264.834 316.994 277.527 301.246 289.757 284.881C302.081 268.391 313.948 251.282 333.836 245.318L333.407 243.374C312.715 249.579 300.414 267.407 288.226 283.716C275.945 300.149 263.783 315.06 243.318 316.822L243.346 318.844ZM333.836 245.318C353.756 239.345 369.401 245.739 385.381 252.426C401.306 259.09 417.57 266.05 438.308 260.401L437.929 258.443C417.915 263.894 402.22 257.231 386.23 250.539C370.295 243.871 354.068 237.178 333.407 243.374L333.836 245.318ZM438.308 260.401C459.034 254.756 471.792 239.975 484.339 225.593C496.936 211.154 509.322 197.111 529.402 192.053L529.061 190.085C508.261 195.324 495.466 209.908 482.914 224.297C470.312 238.742 457.955 252.988 437.929 258.443L438.308 260.401ZM529.402 192.053C549.498 186.992 565.143 193.229 581.133 200.069C597.076 206.89 613.376 214.324 634.429 210.998L634.263 208.993C613.834 212.221 598.017 205.043 581.994 198.188C566.017 191.352 549.846 184.849 529.061 190.085L529.402 192.053ZM634.429 210.998C655.484 207.671 668.776 196.251 681.873 185.168C694.98 174.077 707.897 163.317 728.4 160.618L728.284 158.606C707.133 161.391 693.793 172.546 680.686 183.637C667.568 194.737 654.688 205.766 634.263 208.993L634.429 210.998ZM728.4 160.618C749.011 157.904 769.818 162.614 788.297 168.675C797.532 171.704 806.155 175.059 813.878 177.982C821.578 180.897 828.414 183.394 834.004 184.664L834.554 182.682C829.109 181.445 822.392 178.996 814.669 176.072C806.967 173.157 798.295 169.783 789.011 166.738C770.452 160.65 749.325 155.836 728.284 158.606L728.4 160.618Z" fill="#F1F0F0" mask="url(#path-11-outside-6_358_75)"/>
<mask id="path-13-outside-7_358_75" maskUnits="userSpaceOnUse" x="-63.28" y="47.3886" width="891.685" height="297.957" fill="black">
<rect fill="white" x="-63.28" y="47.3886" width="891.685" height="297.957"/>
<path d="M-53.7433 303.341C-34.9639 302.752 -0.720066 319.356 36.3979 300.516C73.5159 281.676 82.9417 219.464 124.423 212.91C165.904 206.357 193.555 272.671 235.508 269.059C277.461 265.447 285.217 207.741 325.798 195.572C366.378 183.403 389.542 221.747 430.294 210.648C471.046 199.549 480.527 152.592 521.408 142.295C562.288 131.998 585.041 167.775 626.522 161.222C668.003 154.668 678.865 116.322 720.518 110.838C762.17 105.354 804.385 129.886 826.455 134.899"/>
</mask>
<path d="M-53.7051 302.327C-54.249 302.344 -54.707 302.812 -54.7281 303.372C-54.7492 303.931 -54.3254 304.371 -53.7815 304.354L-53.7051 302.327ZM826.18 135.89C826.703 136.009 827.25 135.661 827.402 135.114C827.554 134.566 827.253 134.026 826.73 133.907L826.18 135.89ZM-53.7815 304.354C-49.2045 304.211 -43.6412 305.117 -37.1931 306.299C-30.7792 307.476 -23.5372 308.915 -15.7216 309.781C-0.073892 311.515 17.9811 310.963 36.7835 301.42L36.0123 299.612C17.6967 308.909 0.0708353 309.475 -15.3777 307.764C-23.1103 306.908 -30.2702 305.484 -36.7187 304.301C-43.1329 303.125 -48.8924 302.176 -53.7051 302.327L-53.7815 304.354ZM36.7835 301.42C46.2574 296.611 53.9235 289.055 60.7266 280.406C67.5189 271.77 73.5158 261.954 79.5815 252.629C91.7898 233.86 104.278 217.108 124.506 213.912L124.34 211.908C103.087 215.266 90.1212 232.897 77.9668 251.583C71.8512 260.985 65.9394 270.665 59.2287 279.197C52.5287 287.716 45.0973 295.001 36.0123 299.612L36.7835 301.42ZM124.506 213.912C134.588 212.32 143.878 215.142 152.854 220.32C161.844 225.506 170.434 233.006 179.118 240.671C187.772 248.31 196.519 256.113 205.738 261.769C214.969 267.431 224.76 270.996 235.522 270.07L235.494 268.048C225.279 268.928 215.881 265.558 206.832 260.007C197.771 254.449 189.147 246.762 180.459 239.093C171.801 231.45 163.078 223.825 153.906 218.534C144.72 213.234 134.999 210.224 124.34 211.908L124.506 213.912ZM235.522 270.07C257.01 268.22 269.703 252.472 281.933 236.107C294.257 219.617 306.124 202.508 326.012 196.544L325.583 194.6C304.891 200.805 292.59 218.633 280.402 234.942C268.121 251.375 255.959 266.286 235.494 268.048L235.522 270.07ZM326.012 196.544C345.932 190.571 361.577 196.965 377.557 203.652C393.482 210.316 409.746 217.276 430.484 211.627L430.105 209.669C410.091 215.12 394.396 208.457 378.406 201.765C362.471 195.097 346.244 188.404 325.583 194.6L326.012 196.544ZM430.484 211.627C451.21 205.982 463.968 191.201 476.516 176.819C489.112 162.38 501.498 148.337 521.579 143.279L521.237 141.311C500.437 146.55 487.642 161.134 475.09 175.523C462.488 189.967 450.131 204.214 430.105 209.669L430.484 211.627ZM521.579 143.279C541.674 138.218 557.319 144.455 573.309 151.295C589.252 158.116 605.552 165.55 626.605 162.224L626.439 160.219C606.01 163.447 590.193 156.269 574.17 149.414C558.193 142.578 542.022 136.075 521.237 141.311L521.579 143.279ZM626.605 162.224C647.66 158.897 660.952 147.477 674.049 136.394C687.156 125.303 700.073 114.543 720.576 111.844L720.46 109.832C699.309 112.617 685.969 123.772 672.862 134.863C659.744 145.963 646.865 156.992 626.439 160.219L626.605 162.224ZM720.576 111.844C741.188 109.13 761.994 113.84 780.473 119.9C789.708 122.93 798.331 126.285 806.054 129.208C813.754 132.123 820.59 134.62 826.18 135.89L826.73 133.907C821.285 132.671 814.568 130.222 806.845 127.298C799.143 124.383 790.471 121.009 781.187 117.964C762.628 111.876 741.501 107.062 720.46 109.832L720.576 111.844Z" fill="#F1F0F0" mask="url(#path-13-outside-7_358_75)"/>
</svg>
