<svg width="80" height="80" viewBox="0 0 80 80" fill="none" xmlns="http://www.w3.org/2000/svg">
<g clip-path="url(#clip0_76_53)">
<path d="M40 80C62.0914 80 80 62.0914 80 40C80 17.9086 62.0914 0 40 0C17.9086 0 0 17.9086 0 40C0 62.0914 17.9086 80 40 80Z" fill="#4ACC97"/>
<path d="M75.7453 57.9688C72.6028 64.2001 67.8913 69.5056 62.075 73.3625C61.8 73.5437 61.525 73.7219 61.2453 73.8953C61.1484 73.9578 61.0516 74.0172 60.9531 74.0781C57.45 76.2383 53.6327 77.8413 49.6375 78.8297C48.2092 79.1841 46.7621 79.458 45.3031 79.65L45.2047 79.6641C44.8151 79.7141 44.4245 79.7589 44.0328 79.7984C43.7266 79.8297 43.4198 79.8568 43.1125 79.8797C42.9016 79.8969 42.6906 79.9109 42.4797 79.925C41.6599 79.975 40.8333 80 40 80C39.3625 80 38.7292 79.9854 38.1 79.9562C37.8031 79.9422 37.5094 79.925 37.2156 79.9047C36.9641 79.8875 36.7156 79.8672 36.4656 79.8453C35.9802 79.8036 35.4969 79.7516 35.0156 79.6891C29.2097 78.9696 23.6342 76.9768 18.6875 73.8531C18.4766 73.7203 18.2656 73.5844 18.0625 73.4484C17.8594 73.3125 17.6391 73.1656 17.4375 73.0219C11.8441 69.1962 7.30914 64.0179 4.2547 57.9688C7.75058 51.0405 13.1773 45.2724 19.8797 41.3609C20.1172 41.2234 20.3578 41.0859 20.5984 40.9531C23.0254 39.6025 25.5874 38.51 28.2422 37.6938L28.3797 37.6531C29.8826 37.1976 31.4113 36.8324 32.9578 36.5594C33.0266 36.5453 33.0969 36.5344 33.1656 36.5219C34.2844 36.3271 35.4167 36.1813 36.5625 36.0844C37.7083 35.9875 38.8542 35.9385 40 35.9375C41.3021 35.9375 42.5875 35.999 43.8563 36.1219C45.1656 36.2469 46.4552 36.4344 47.725 36.6844C48.8156 36.8927 49.8901 37.15 50.9484 37.4563C51.3563 37.5703 51.7594 37.6922 52.1609 37.8203C53.5299 38.2567 54.8741 38.7674 56.1875 39.35C57.3636 39.8708 58.5094 40.4437 59.625 41.0687C59.8078 41.1719 59.9906 41.2766 60.1719 41.3812C66.8532 45.2939 72.2614 51.0542 75.7453 57.9688Z" fill="#43B584"/>
<path d="M61.25 73.8952C61.1531 73.9577 61.0563 74.0171 60.9578 74.078C57.4547 76.2382 53.6373 77.8412 49.6422 78.8296C48.2139 79.184 46.7668 79.4578 45.3078 79.6499L45.2094 79.6639C44.8198 79.7139 44.4292 79.7587 44.0375 79.7983C43.7312 79.8296 43.4245 79.8566 43.1172 79.8796C42.9062 79.8968 42.6953 79.9108 42.4844 79.9249C41.6615 79.9749 40.8333 79.9999 40 79.9999C39.3625 79.9999 38.7292 79.9853 38.1 79.9561C37.8031 79.9421 37.5094 79.9249 37.2156 79.9046C36.9641 79.8874 36.7156 79.8671 36.4656 79.8452C35.9802 79.8035 35.4969 79.7514 35.0156 79.6889C29.2096 78.9695 23.6342 76.9767 18.6875 73.853C18.4766 73.7202 18.2656 73.5843 18.0625 73.4483C20.1437 71.1046 22.75 69.0905 26.0406 67.528C26.1703 67.4671 26.3297 67.4046 26.5172 67.3374C26.6547 67.2889 26.8016 67.2405 26.9641 67.1811C27.5891 66.9843 28.3984 66.7655 29.2391 66.528C30.2109 66.2561 31.2266 65.9593 32.0688 65.6436C32.8844 65.3389 33.5375 65.0186 33.8313 64.678C34.6016 63.7843 34.6031 62.4077 34.5281 61.0843C34.4906 60.4593 34.4375 59.8561 34.4375 59.3155C34.4375 59.0671 34.4375 58.8358 34.4375 58.6186C34.375 54.6468 33.8438 55.8374 36.925 54.8046C37.0396 54.7719 37.1567 54.7483 37.275 54.7342C38.9359 54.4889 45.1016 54.178 45.775 54.8046C46.4 55.3889 46.3266 56.7999 46.1359 58.3327C45.9797 59.5952 45.7453 60.9374 45.7672 61.9671V61.9796C45.7616 62.3408 45.8187 62.7003 45.9359 63.0421C46.4641 64.3983 47.2906 65.0936 48.3125 65.5889C49.1234 65.9858 50.0594 66.2561 51.0687 66.6436C51.4203 66.7764 51.7781 66.9233 52.1469 67.0936C52.1812 67.1093 52.2125 67.1233 52.2453 67.1421C52.6578 67.3343 53.0625 67.5358 53.4531 67.7421C56.6875 69.4405 59.2281 71.5186 61.25 73.8952Z" fill="#FCC8BC"/>
<path d="M59.6422 27.0311V40.3124C59.6422 50.2233 51.7547 53.3967 46.0047 58.4374C44.3833 59.8854 42.2856 60.6857 40.1117 60.6857C37.9379 60.6857 35.8401 59.8854 34.2187 58.4374C28.4687 53.3983 20.5812 50.2249 20.5812 40.3124V27.0311C20.5812 26.9874 20.5812 26.942 20.5812 26.8983C20.6266 19.9639 24.3469 13.9592 29.7797 10.9608C29.9547 10.8624 30.1344 10.7686 30.3125 10.6795C32.369 9.63527 34.6254 9.04387 36.9297 8.94517C37.1641 8.93267 37.3984 8.92798 37.6359 8.92798H42.5828C46.5798 8.93768 50.4357 10.4062 53.4265 13.0577C53.884 13.4578 54.3201 13.8818 54.7328 14.328C57.6807 17.5317 59.4085 21.6698 59.6141 26.0186C59.6328 26.3608 59.6422 26.6952 59.6422 27.0311Z" fill="#FCC8BC"/>
<path d="M28.375 40.3203V27.0313C28.375 17.5453 35.25 9.76094 44 8.99531C43.5312 8.95 43.0625 8.92969 42.575 8.92969H37.6375C28.2172 8.92969 20.5812 17.0359 20.5812 27.0313V33.6078C19.5452 33.6078 18.5517 34.0194 17.8191 34.7519C17.0865 35.4845 16.675 36.4781 16.675 37.5141C16.675 38.5501 17.0865 39.5436 17.8191 40.2762C18.5517 41.0088 19.5452 41.4203 20.5812 41.4203H20.6187C21.1859 50.4688 28.6859 53.5938 34.2187 58.4375C37.0203 60.8938 40.8391 61.3422 44.0094 59.7734C43.2868 59.4182 42.6143 58.969 42.0094 58.4375C36.2594 53.4047 28.375 50.2281 28.375 40.3203Z" fill="#FAB3A7"/>
<path d="M59.6407 41.4265C61.7989 41.4265 63.5485 39.6769 63.5485 37.5187C63.5485 35.3604 61.7989 33.6108 59.6407 33.6108C57.4824 33.6108 55.7328 35.3604 55.7328 37.5187C55.7328 39.6769 57.4824 41.4265 59.6407 41.4265Z" fill="#FCC8BC"/>
<path d="M25.8344 32.1515C25.8344 32.1515 30.761 29.4062 35.0141 32.1515" stroke="#27273D" stroke-width="7" stroke-miterlimit="10" stroke-linecap="round"/>
<path d="M44.8156 32.1515C44.8156 32.1515 49.7422 29.4062 53.9953 32.1515" stroke="#27273D" stroke-width="7" stroke-miterlimit="10" stroke-linecap="round"/>
<path d="M49.3406 39.3982C50.2424 39.3982 50.9735 38.3461 50.9735 37.0482C50.9735 35.7504 50.2424 34.6982 49.3406 34.6982C48.4389 34.6982 47.7078 35.7504 47.7078 37.0482C47.7078 38.3461 48.4389 39.3982 49.3406 39.3982Z" fill="#27273D"/>
<path d="M41.9063 41.428H38.2031C37.6578 41.428 37.2156 41.8701 37.2156 42.4155V42.5936C37.2156 43.139 37.6578 43.5811 38.2031 43.5811H41.9063C42.4516 43.5811 42.8938 43.139 42.8938 42.5936V42.4155C42.8938 41.8701 42.4516 41.428 41.9063 41.428Z" fill="#FAB3A7"/>
<path d="M27.3891 36.7563C27.3891 36.7563 30.211 34.975 33.3266 36.7563" stroke="#27273D" stroke-width="7" stroke-miterlimit="10" stroke-linecap="round"/>
<path d="M46.3703 35.3124C46.3703 35.3124 49.1922 33.5312 52.3078 35.3124" stroke="#27273D" stroke-width="7" stroke-miterlimit="10" stroke-linecap="round"/>
<path d="M20.6922 35.9639C20.3068 36.0026 19.9494 36.1831 19.6896 36.4703C19.4297 36.7576 19.2858 37.1312 19.2858 37.5186C19.2858 37.9059 19.4297 38.2795 19.6896 38.5668C19.9494 38.8541 20.3068 39.0346 20.6922 39.0732V35.9639Z" fill="#F58D89"/>
<path d="M59.6406 39.0732C60.0261 39.0346 60.3834 38.8541 60.6433 38.5668C60.9032 38.2795 61.0471 37.9059 61.0471 37.5186C61.0471 37.1312 60.9032 36.7576 60.6433 36.4703C60.3834 36.1831 60.0261 36.0026 59.6406 35.9639V39.0732Z" fill="#FAB3A7"/>
<path d="M35.5219 47.2C35.4688 47.2 35.4163 47.211 35.3677 47.2324C35.3191 47.2537 35.2754 47.2849 35.2395 47.3239C35.2035 47.363 35.176 47.409 35.1587 47.4592C35.1415 47.5094 35.1348 47.5627 35.1391 47.6156C35.3485 50.1875 37.4688 52.5703 40.0547 52.5703C42.6407 52.5703 44.7625 50.1875 44.9719 47.6156C44.976 47.5627 44.9691 47.5096 44.9518 47.4595C44.9344 47.4094 44.9069 47.3634 44.871 47.3244C44.8351 47.2854 44.7915 47.2542 44.743 47.2328C44.6945 47.2114 44.6421 47.2002 44.5891 47.2H35.5219Z" fill="white"/>
<path d="M61.9094 20.3124L59.6875 33.6108L57.7 22.7015C55.9375 20.8733 51.5 18.3155 41.0344 19.9999C40.7219 20.0499 40.3969 20.1046 40.0719 20.1562C35.5234 19.3374 32.0562 19.2952 29.4219 19.6593C25.75 20.1671 23.6969 21.4671 22.5906 22.5546L20.5828 33.5999L18.3562 20.3187C17.9406 17.8343 18.6797 15.2562 20.4156 13.5483C20.658 13.3099 20.9192 13.0915 21.1969 12.8952C20.5719 11.2265 20.2594 9.02803 20.5812 6.12803C20.5812 6.12803 24.2672 9.48272 27.3922 10.2249C27.3922 10.2249 26.6109 5.97178 31.9922 3.00616L32.8484 4.99991C32.8484 4.99991 38.3922 0.126471 48.75 4.92647C48.75 4.92647 53.3328 6.91553 56.0359 11.9077C57.7953 11.9421 59.1016 12.7483 60.0516 13.7655C61.6484 15.4687 62.3078 17.9405 61.9094 20.3124Z" fill="#A65C3B"/>
<path d="M41.0344 19.9998C40.7219 20.0498 40.3969 20.1045 40.0719 20.1561C35.5234 19.3373 32.0562 19.2951 29.4219 19.6592C26.9922 18.6529 23.6062 16.3107 22.8594 10.9732C22.8594 10.9732 25.1953 13.5982 30.4281 15.1311C30.4281 15.1311 29.7547 12.8467 31.9906 9.94043C31.9906 9.94043 32.6156 13.4889 35.0141 14.8029C35.0141 14.8029 35.8766 12.6154 37.8453 12.5045C37.8453 12.5154 37.8875 16.8748 41.0344 19.9998Z" fill="#9E4830"/>
<path d="M47.2235 6.38107C47.4125 8.53732 47.1953 11.6608 44.9953 14.0139C44.9162 14.0939 44.8635 14.1962 44.8443 14.3071C44.825 14.418 44.8401 14.5321 44.8875 14.6341C44.935 14.7361 45.0125 14.8212 45.1097 14.8779C45.2069 14.9346 45.3191 14.9603 45.4313 14.9514C46.8906 14.8483 49.025 14.5451 50.211 13.6608C50.2785 13.6078 50.3575 13.5713 50.4417 13.5541C50.5258 13.537 50.6128 13.5396 50.6957 13.5619C50.7787 13.5842 50.8553 13.6255 50.9195 13.6825C50.9837 13.7395 51.0337 13.8107 51.0656 13.8904C51.3625 14.6623 51.7297 15.9217 51.5719 17.1108C51.5586 17.2297 51.5844 17.3497 51.6453 17.4526C51.7062 17.5556 51.7989 17.636 51.9095 17.6817C52.0201 17.7274 52.1425 17.7359 52.2583 17.7059C52.3741 17.6759 52.4771 17.6091 52.5516 17.5154C53.6078 16.2264 54.4938 13.9217 53.1766 10.0858C53.1436 9.99079 53.0852 9.90665 53.0079 9.84244C52.9305 9.77822 52.8371 9.73637 52.7377 9.72141C52.6382 9.70645 52.5366 9.71894 52.4438 9.75755C52.351 9.79616 52.2704 9.8594 52.211 9.94045L52.0063 10.2186C51.9541 10.2894 51.8859 10.3467 51.8071 10.3858C51.7283 10.4248 51.6413 10.4445 51.5534 10.4431C51.4655 10.4417 51.3792 10.4194 51.3017 10.3779C51.2242 10.3364 51.1577 10.2769 51.1078 10.2045L48.2266 6.0217C48.1574 5.92188 48.0573 5.84766 47.9417 5.81056C47.8261 5.77346 47.7014 5.77554 47.5871 5.8165C47.4728 5.85745 47.3752 5.93498 47.3095 6.03706C47.2437 6.13913 47.2135 6.26006 47.2235 6.38107Z" fill="#BA6949"/>
<path d="M45.2047 72.5562V79.664C44.8151 79.714 44.4245 79.7588 44.0328 79.7983C43.7266 79.8296 43.4198 79.8567 43.1125 79.8796C42.9016 79.8968 42.6906 79.9108 42.4797 79.9249C41.6599 79.9749 40.8333 79.9999 40 79.9999C39.3625 79.9999 38.7292 79.9853 38.1 79.9562C37.8031 79.9421 37.5094 79.9249 37.2156 79.9046C36.9641 79.8874 36.7156 79.8671 36.4656 79.8452C35.9802 79.8036 35.4969 79.7515 35.0156 79.689V72.5562C35.7171 72.8877 36.4557 73.1342 37.2156 73.2905C39.1607 73.715 41.1766 73.6942 43.1125 73.2296C43.8257 73.0574 44.525 72.8323 45.2047 72.5562Z" fill="#F6C752"/>
<path d="M37.2156 72.5514V79.9045C36.9641 79.8873 36.7156 79.867 36.4656 79.8451C35.9802 79.8035 35.4969 79.7514 35.0156 79.6889C29.2096 78.9694 23.6342 76.9766 18.6875 73.8529C18.4766 73.7201 18.2656 73.5842 18.0625 73.4482C20.1437 71.1045 22.75 69.0904 26.0406 67.5279C26.1703 67.467 26.3297 67.4045 26.5172 67.3373C26.6547 67.2889 26.8016 67.2404 26.9641 67.1811C27.5891 66.9842 28.3984 66.7654 29.2391 66.5279C30.2109 66.2561 31.2266 65.9592 32.0688 65.6436L35.1406 70.2076L36.8953 71.8123C36.9979 71.9059 37.0795 72.0201 37.1347 72.1475C37.1899 72.2749 37.2175 72.4125 37.2156 72.5514Z" fill="#3E436D"/>
<path d="M61.25 73.8952C61.1531 73.9577 61.0562 74.0171 60.9578 74.078C57.4547 76.2382 53.6373 77.8412 49.6422 78.8296C48.2139 79.184 46.7668 79.4579 45.3078 79.6499L45.2094 79.664C44.8198 79.714 44.4292 79.7588 44.0375 79.7983C43.7312 79.8296 43.4245 79.8567 43.1172 79.8796V72.5515C43.1176 72.4147 43.1464 72.2794 43.2018 72.1544C43.2572 72.0293 43.338 71.9171 43.4391 71.8249L45.1937 70.2202L45.2094 70.1968L48.3062 65.5952C49.1172 65.9921 50.0531 66.2624 51.0625 66.6499C51.4141 66.7827 51.7719 66.9296 52.1406 67.0999C52.175 67.1155 52.2062 67.1296 52.2391 67.1483C52.6516 67.3405 53.0562 67.5421 53.4469 67.7483C56.6875 69.4405 59.2281 71.5187 61.25 73.8952Z" fill="#3E436D"/>
<path d="M34.4984 60.6921L29.6094 65.0546C29.4669 65.1811 29.3527 65.3361 29.274 65.5096C29.1953 65.6831 29.1539 65.8712 29.1526 66.0617C29.1513 66.2522 29.19 66.4408 29.2663 66.6154C29.3425 66.7899 29.4546 66.9465 29.5953 67.075C30.4188 67.8187 32.0203 68.8843 35.1375 70.2203L34.4984 60.6921Z" fill="#32314B"/>
<path d="M45.8438 60.6921L50.7313 65.0546C50.8737 65.1811 50.988 65.3361 51.0667 65.5096C51.1453 65.6831 51.1867 65.8712 51.188 66.0617C51.1893 66.2522 51.1506 66.4408 51.0743 66.6154C50.9981 66.7899 50.886 66.9465 50.7453 67.075C49.9219 67.8187 48.3203 68.8843 45.2031 70.2203L45.8438 60.6921Z" fill="#32314B"/>
</g>
<defs>
<clipPath id="clip0_76_53">
<rect width="80" height="80" fill="white"/>
</clipPath>
</defs>
</svg>
