<svg width="22" height="23" viewBox="0 0 22 23" fill="none" xmlns="http://www.w3.org/2000/svg">
<path fill-rule="evenodd" clip-rule="evenodd" d="M19.25 3.59375C19.25 3.40313 19.1776 3.22031 19.0486 3.08552C18.9197 2.95073 18.7448 2.875 18.5625 2.875H10.3125C10.1302 2.875 9.95529 2.95073 9.82636 3.08552C9.69743 3.22031 9.625 3.40313 9.625 3.59375C9.625 3.78437 9.69743 3.96719 9.82636 4.10198C9.95529 4.23677 10.1302 4.3125 10.3125 4.3125H16.9029L2.95075 18.8974C2.88683 18.9642 2.83612 19.0435 2.80153 19.1308C2.76694 19.2182 2.74913 19.3117 2.74913 19.4062C2.74913 19.5008 2.76694 19.5943 2.80153 19.6817C2.83612 19.769 2.88683 19.8483 2.95075 19.9151C3.01467 19.982 3.09055 20.035 3.17407 20.0711C3.25759 20.1073 3.3471 20.1259 3.4375 20.1259C3.5279 20.1259 3.61741 20.1073 3.70093 20.0711C3.78444 20.035 3.86033 19.982 3.92425 19.9151L17.875 5.32881V12.2188C17.875 12.4094 17.9474 12.5922 18.0764 12.727C18.2053 12.8618 18.3802 12.9375 18.5625 12.9375C18.7448 12.9375 18.9197 12.8618 19.0486 12.727C19.1776 12.5922 19.25 12.4094 19.25 12.2188V3.59375Z" fill="white"/>
</svg>
